<svg width="48" height="48" viewBox="0 0 48 48" fill="none" xmlns="http://www.w3.org/2000/svg">
<rect width="48" height="48" rx="24" fill="#FFF3DF"/>
<mask id="mask0_465_579" style="mask-type:alpha" maskUnits="userSpaceOnUse" x="9" y="9" width="30" height="30">
<rect x="9" y="9" width="30" height="30" fill="#D9D9D9"/>
</mask>
<g mask="url(#mask0_465_579)">
<path d="M23.0625 36.5C22.375 36.5 21.6823 36.4219 20.9844 36.2656C20.2865 36.1094 19.5729 35.8854 18.8438 35.5938C19.0938 33.0729 19.8229 30.7188 21.0312 28.5313C22.2396 26.3438 23.7917 24.4167 25.6875 22.75C23.3958 23.9167 21.4115 25.4583 19.7344 27.375C18.0573 29.2917 16.8854 31.4792 16.2188 33.9375C16.1354 33.875 16.0573 33.8073 15.9844 33.7344L15.75 33.5C14.7708 32.5208 14.026 31.4271 13.5156 30.2188C13.0052 29.0104 12.75 27.75 12.75 26.4375C12.75 25.0208 13.0312 23.6667 13.5938 22.375C14.1562 21.0833 14.9375 19.9375 15.9375 18.9375C17.625 17.25 19.8125 16.1511 22.5 15.6406C25.1875 15.1302 28.9583 15.0833 33.8125 15.5C34.1875 20.4792 34.125 24.2761 33.625 26.8906C33.125 29.5052 32.0417 31.6458 30.375 33.3125C29.3542 34.3333 28.2135 35.1198 26.9531 35.6719C25.6927 36.224 24.3958 36.5 23.0625 36.5Z" fill="#F7A600"/>
</g>
</svg>
