<svg width="48" height="48" viewBox="0 0 48 48" fill="none" xmlns="http://www.w3.org/2000/svg">
<rect width="48" height="48" rx="24" fill="#FFF3DF"/>
<mask id="mask0_465_2654" style="mask-type:alpha" maskUnits="userSpaceOnUse" x="9" y="9" width="30" height="30">
<rect x="9" y="9" width="30" height="30" fill="#D9D9D9"/>
</mask>
<g mask="url(#mask0_465_2654)">
<path d="M22.75 32.75H25.25V29H29V26.5H25.25V22.75H22.75V26.5H19V29H22.75V32.75ZM16.5 36.5C15.8125 36.5 15.224 36.2552 14.7344 35.7656C14.2448 35.276 14 34.6875 14 34V21.5C14 20.8125 14.2448 20.224 14.7344 19.7344C15.224 19.2448 15.8125 19 16.5 19H17.75V16.5C17.75 14.7708 18.3594 13.2969 19.5781 12.0781C20.7969 10.8594 22.2708 10.25 24 10.25C25.7292 10.25 27.2031 10.8594 28.4219 12.0781C29.6406 13.2969 30.25 14.7708 30.25 16.5V19H31.5C32.1875 19 32.776 19.2448 33.2656 19.7344C33.7552 20.224 34 20.8125 34 21.5V34C34 34.6875 33.7552 35.276 33.2656 35.7656C32.776 36.2552 32.1875 36.5 31.5 36.5H16.5ZM20.25 19H27.75V16.5C27.75 15.4583 27.3854 14.5729 26.6562 13.8438C25.9271 13.1146 25.0417 12.75 24 12.75C22.9583 12.75 22.0729 13.1146 21.3438 13.8438C20.6146 14.5729 20.25 15.4583 20.25 16.5V19Z" fill="#F7A600"/>
</g>
</svg>
