<svg width="48" height="48" viewBox="0 0 48 48" fill="none" xmlns="http://www.w3.org/2000/svg">
<rect width="48" height="48" rx="24" fill="#FFF3DF"/>
<mask id="mask0_465_89" style="mask-type:alpha" maskUnits="userSpaceOnUse" x="9" y="9" width="30" height="30">
<rect x="9" y="9" width="30" height="30" fill="#D9D9D9"/>
</mask>
<g mask="url(#mask0_465_89)">
<path d="M17.75 34.0312V22.75H19.75C19.8958 22.75 20.0417 22.7656 20.1875 22.7969C20.3333 22.8281 20.4792 22.8646 20.625 22.9063L29.2812 26.125C29.5729 26.2292 29.8073 26.4167 29.9844 26.6875C30.1615 26.9583 30.25 27.2396 30.25 27.5313C30.25 27.9688 30.099 28.3229 29.7969 28.5938C29.4948 28.8646 29.1458 29 28.75 29H25.4688C25.3646 29 25.2865 28.9948 25.2344 28.9844C25.1823 28.974 25.1146 28.9479 25.0312 28.9063L23.0312 28.125L22.625 29.3438L25.0312 30.1875C25.0729 30.2083 25.1354 30.224 25.2188 30.2344C25.3021 30.2448 25.375 30.25 25.4375 30.25H34C34.6667 30.25 35.25 30.4896 35.75 30.9688C36.25 31.4479 36.5 32.0417 36.5 32.75L26.5312 36.5L17.75 34.0312ZM10.25 36.5V22.75H15.25V36.5H10.25ZM25.1562 22.8125L19.8438 17.5L21.625 15.75L25.1562 19.2813L32.25 12.2188L34 13.9688L25.1562 22.8125Z" fill="#F7A600"/>
</g>
</svg>
