<svg width="48" height="48" viewBox="0 0 48 48" fill="none" xmlns="http://www.w3.org/2000/svg">
<rect width="48" height="48" rx="24" fill="#FFF3DF"/>
<mask id="mask0_465_4332" style="mask-type:alpha" maskUnits="userSpaceOnUse" x="9" y="9" width="30" height="30">
<rect x="9" y="9" width="30" height="30" fill="#D9D9D9"/>
</mask>
<g mask="url(#mask0_465_4332)">
<path d="M10.25 34V29C10.25 28.2917 10.4948 27.6979 10.9844 27.2188C11.474 26.7396 12.0625 26.5 12.75 26.5H16.8438C17.2604 26.5 17.6562 26.6042 18.0312 26.8125C18.4062 27.0208 18.7083 27.3021 18.9375 27.6562C19.5417 28.4688 20.2865 29.1042 21.1719 29.5625C22.0573 30.0208 23 30.25 24 30.25C25.0208 30.25 25.974 30.0208 26.8594 29.5625C27.7448 29.1042 28.4792 28.4688 29.0625 27.6562C29.3333 27.3021 29.651 27.0208 30.0156 26.8125C30.3802 26.6042 30.7604 26.5 31.1562 26.5H35.25C35.9583 26.5 36.5521 26.7396 37.0313 27.2188C37.5104 27.6979 37.75 28.2917 37.75 29V34H29V31.1562C28.2708 31.6771 27.4844 32.0729 26.6406 32.3438C25.7969 32.6146 24.9167 32.75 24 32.75C23.1042 32.75 22.2292 32.6094 21.375 32.3281C20.5208 32.0469 19.7292 31.6458 19 31.125V34H10.25ZM24 29C23.2083 29 22.4583 28.8177 21.75 28.4531C21.0417 28.0885 20.4479 27.5833 19.9688 26.9375C19.6146 26.4167 19.1719 26.0052 18.6406 25.7031C18.1094 25.401 17.5313 25.25 16.9063 25.25C17.3646 24.4792 18.3333 23.8698 19.8125 23.4219C21.2917 22.974 22.6875 22.75 24 22.75C25.3125 22.75 26.7083 22.974 28.1875 23.4219C29.6667 23.8698 30.6354 24.4792 31.0938 25.25C30.4896 25.25 29.9167 25.401 29.375 25.7031C28.8333 26.0052 28.3854 26.4167 28.0312 26.9375C27.5729 27.6042 26.9896 28.1146 26.2812 28.4688C25.5729 28.8229 24.8125 29 24 29ZM14 25.25C12.9583 25.25 12.0729 24.8854 11.3438 24.1562C10.6146 23.4271 10.25 22.5417 10.25 21.5C10.25 20.4375 10.6146 19.5469 11.3438 18.8281C12.0729 18.1094 12.9583 17.75 14 17.75C15.0625 17.75 15.9531 18.1094 16.6719 18.8281C17.3906 19.5469 17.75 20.4375 17.75 21.5C17.75 22.5417 17.3906 23.4271 16.6719 24.1562C15.9531 24.8854 15.0625 25.25 14 25.25ZM34 25.25C32.9583 25.25 32.0729 24.8854 31.3438 24.1562C30.6146 23.4271 30.25 22.5417 30.25 21.5C30.25 20.4375 30.6146 19.5469 31.3438 18.8281C32.0729 18.1094 32.9583 17.75 34 17.75C35.0625 17.75 35.9531 18.1094 36.6719 18.8281C37.3906 19.5469 37.75 20.4375 37.75 21.5C37.75 22.5417 37.3906 23.4271 36.6719 24.1562C35.9531 24.8854 35.0625 25.25 34 25.25ZM24 21.5C22.9583 21.5 22.0729 21.1354 21.3438 20.4062C20.6146 19.6771 20.25 18.7917 20.25 17.75C20.25 16.6875 20.6146 15.7969 21.3438 15.0781C22.0729 14.3594 22.9583 14 24 14C25.0625 14 25.9531 14.3594 26.6719 15.0781C27.3906 15.7969 27.75 16.6875 27.75 17.75C27.75 18.7917 27.3906 19.6771 26.6719 20.4062C25.9531 21.1354 25.0625 21.5 24 21.5Z" fill="#F7A600"/>
</g>
</svg>
