<svg width="48" height="48" viewBox="0 0 48 48" fill="none" xmlns="http://www.w3.org/2000/svg">
<rect width="48" height="48" rx="24" fill="#FFF3DF"/>
<mask id="mask0_465_3362" style="mask-type:alpha" maskUnits="userSpaceOnUse" x="9" y="9" width="30" height="30">
<rect x="9" y="9" width="30" height="30" fill="#D9D9D9"/>
</mask>
<g mask="url(#mask0_465_3362)">
<path d="M10.3125 35.25V31.75C10.3125 31.0625 10.4896 30.4167 10.8438 29.8125C11.1979 29.2083 11.6875 28.75 12.3125 28.4375C13.375 27.8958 14.5729 27.4375 15.9062 27.0625C17.2396 26.6875 18.7083 26.5 20.3125 26.5C21.9167 26.5 23.3854 26.6875 24.7188 27.0625C26.0521 27.4375 27.25 27.8958 28.3125 28.4375C28.9375 28.75 29.4271 29.2083 29.7812 29.8125C30.1354 30.4167 30.3125 31.0625 30.3125 31.75V35.25H10.3125ZM20.3125 25.25C18.9375 25.25 17.7604 24.7604 16.7812 23.7812C15.8021 22.8021 15.3125 21.625 15.3125 20.25H15C14.8125 20.25 14.6615 20.1927 14.5469 20.0781C14.4323 19.9635 14.375 19.8125 14.375 19.625C14.375 19.4375 14.4323 19.2865 14.5469 19.1719C14.6615 19.0573 14.8125 19 15 19H15.3125C15.3125 18.0625 15.5417 17.2188 16 16.4688C16.4583 15.7188 17.0625 15.125 17.8125 14.6875V15.875C17.8125 16.0625 17.8698 16.2135 17.9844 16.3281C18.099 16.4427 18.25 16.5 18.4375 16.5C18.625 16.5 18.776 16.4427 18.8906 16.3281C19.0052 16.2135 19.0625 16.0625 19.0625 15.875V14.1875C19.25 14.125 19.4479 14.0781 19.6562 14.0469C19.8646 14.0156 20.0833 14 20.3125 14C20.5417 14 20.7604 14.0156 20.9688 14.0469C21.1771 14.0781 21.375 14.125 21.5625 14.1875V15.875C21.5625 16.0625 21.6198 16.2135 21.7344 16.3281C21.849 16.4427 22 16.5 22.1875 16.5C22.375 16.5 22.526 16.4427 22.6406 16.3281C22.7552 16.2135 22.8125 16.0625 22.8125 15.875V14.6875C23.5625 15.125 24.1667 15.7188 24.625 16.4688C25.0833 17.2188 25.3125 18.0625 25.3125 19H25.625C25.8125 19 25.9635 19.0573 26.0781 19.1719C26.1927 19.2865 26.25 19.4375 26.25 19.625C26.25 19.8125 26.1927 19.9635 26.0781 20.0781C25.9635 20.1927 25.8125 20.25 25.625 20.25H25.3125C25.3125 21.625 24.8229 22.8021 23.8438 23.7812C22.8646 24.7604 21.6875 25.25 20.3125 25.25ZM20.3125 22.75C21 22.75 21.5885 22.5052 22.0781 22.0156C22.5677 21.526 22.8125 20.9375 22.8125 20.25H17.8125C17.8125 20.9375 18.0573 21.526 18.5469 22.0156C19.0365 22.5052 19.625 22.75 20.3125 22.75ZM29.6875 27.75L29.5 26.8125C29.375 26.7708 29.2552 26.724 29.1406 26.6719C29.026 26.6198 28.9167 26.5417 28.8125 26.4375L27.9375 26.75L27.3125 25.625L28 25V24.25L27.3125 23.625L27.9375 22.5L28.8125 22.8125C28.8958 22.7292 29 22.6562 29.125 22.5938C29.25 22.5312 29.375 22.4792 29.5 22.4375L29.6875 21.5H30.9375L31.125 22.4375C31.25 22.4792 31.375 22.5312 31.5 22.5938C31.625 22.6562 31.7292 22.7292 31.8125 22.8125L32.6875 22.5L33.3125 23.625L32.625 24.25V25L33.3125 25.625L32.6875 26.75L31.8125 26.4375C31.7083 26.5417 31.599 26.6198 31.4844 26.6719C31.3698 26.724 31.25 26.7708 31.125 26.8125L30.9375 27.75H29.6875ZM30.3125 25.5625C30.5625 25.5625 30.7812 25.4688 30.9688 25.2813C31.1562 25.0938 31.25 24.875 31.25 24.625C31.25 24.375 31.1562 24.1563 30.9688 23.9688C30.7812 23.7812 30.5625 23.6875 30.3125 23.6875C30.0625 23.6875 29.8438 23.7812 29.6562 23.9688C29.4688 24.1563 29.375 24.375 29.375 24.625C29.375 24.875 29.4688 25.0938 29.6562 25.2813C29.8438 25.4688 30.0625 25.5625 30.3125 25.5625ZM32.5625 21.5L32.3125 20.1875C32.125 20.125 31.9531 20.0469 31.7969 19.9531C31.6406 19.8594 31.5 19.75 31.375 19.625L30.0625 20.0625L29.1875 18.5625L30.25 17.625C30.2083 17.5208 30.1875 17.4375 30.1875 17.375V16.875C30.1875 16.8125 30.2083 16.7292 30.25 16.625L29.1875 15.6875L30.0625 14.1875L31.375 14.625C31.5 14.5 31.6406 14.3906 31.7969 14.2969C31.9531 14.2031 32.125 14.125 32.3125 14.0625L32.5625 12.75H34.3125L34.5625 14.0625C34.75 14.125 34.9219 14.2031 35.0781 14.2969C35.2344 14.3906 35.375 14.5 35.5 14.625L36.8125 14.1875L37.6875 15.6875L36.625 16.625C36.6667 16.7292 36.6875 16.8125 36.6875 16.875V17.375C36.6875 17.4375 36.6667 17.5208 36.625 17.625L37.6875 18.5625L36.8125 20.0625L35.5 19.625C35.375 19.75 35.2344 19.8594 35.0781 19.9531C34.9219 20.0469 34.75 20.125 34.5625 20.1875L34.3125 21.5H32.5625ZM33.4375 18.6875C33.875 18.6875 34.2448 18.5365 34.5469 18.2344C34.849 17.9323 35 17.5625 35 17.125C35 16.6875 34.849 16.3177 34.5469 16.0156C34.2448 15.7135 33.875 15.5625 33.4375 15.5625C33 15.5625 32.6302 15.7135 32.3281 16.0156C32.026 16.3177 31.875 16.6875 31.875 17.125C31.875 17.5625 32.026 17.9323 32.3281 18.2344C32.6302 18.5365 33 18.6875 33.4375 18.6875Z" fill="#F7A600"/>
</g>
</svg>
