<svg width="48" height="48" viewBox="0 0 48 48" fill="none" xmlns="http://www.w3.org/2000/svg">
<rect width="48" height="48" rx="24" fill="#FFF3DF"/>
<mask id="mask0_465_699" style="mask-type:alpha" maskUnits="userSpaceOnUse" x="9" y="9" width="30" height="30">
<rect x="9" y="9" width="30" height="30" fill="#D9D9D9"/>
</mask>
<g mask="url(#mask0_465_699)">
<path d="M11.5 35.25V32.75H22.75V18.7813C22.2083 18.5938 21.7396 18.3021 21.3438 17.9062C20.9479 17.5104 20.6562 17.0417 20.4688 16.5H16.5L20.25 25.25C20.25 26.2917 19.8229 27.1771 18.9688 27.9062C18.1146 28.6354 17.0833 29 15.875 29C14.6667 29 13.6354 28.6354 12.7812 27.9062C11.9271 27.1771 11.5 26.2917 11.5 25.25L15.25 16.5H12.75V14H20.4688C20.7188 13.2708 21.1667 12.6719 21.8125 12.2031C22.4583 11.7344 23.1875 11.5 24 11.5C24.8125 11.5 25.5417 11.7344 26.1875 12.2031C26.8333 12.6719 27.2812 13.2708 27.5312 14H35.25V16.5H32.75L36.5 25.25C36.5 26.2917 36.0729 27.1771 35.2188 27.9062C34.3646 28.6354 33.3333 29 32.125 29C30.9167 29 29.8854 28.6354 29.0312 27.9062C28.1771 27.1771 27.75 26.2917 27.75 25.25L31.5 16.5H27.5312C27.3438 17.0417 27.0521 17.5104 26.6562 17.9062C26.2604 18.3021 25.7917 18.5938 25.25 18.7813V32.75H36.5V35.25H11.5ZM29.7812 25.25H34.4688L32.125 19.8125L29.7812 25.25ZM13.5312 25.25H18.2188L15.875 19.8125L13.5312 25.25ZM24 16.5C24.3542 16.5 24.651 16.3802 24.8906 16.1406C25.1302 15.901 25.25 15.6042 25.25 15.25C25.25 14.8958 25.1302 14.599 24.8906 14.3594C24.651 14.1198 24.3542 14 24 14C23.6458 14 23.349 14.1198 23.1094 14.3594C22.8698 14.599 22.75 14.8958 22.75 15.25C22.75 15.6042 22.8698 15.901 23.1094 16.1406C23.349 16.3802 23.6458 16.5 24 16.5Z" fill="#F7A600"/>
</g>
</svg>
