<svg width="95" height="20" viewBox="0 0 95 20" fill="none" xmlns="http://www.w3.org/2000/svg">
<g clip-path="url(#clip0_233_18500)">
<path d="M19.1737 0H16.2134C16.1039 0 16.0466 0.137312 16.1248 0.21653L26.4389 10.6681L20.9248 16.2556C20.3411 16.8471 19.3978 16.8471 18.8141 16.2556L12.7788 10.14L14.5404 8.3549L12.5391 6.32691L8.53125 10.3882L16.7033 18.6691C18.4544 20.4436 21.2896 20.4436 23.0408 18.6691L30.7646 10.8424C30.8636 10.742 30.8636 10.5836 30.7646 10.4832L21.2844 0.887246C20.7268 0.322155 19.9659 0 19.1737 0Z" fill="white"/>
<path d="M14.7069 19.7888L4.39286 9.33193L9.90691 3.74439C10.4906 3.15289 11.434 3.15289 12.0177 3.74439L18.0529 9.86005L16.2913 11.6451L18.2926 13.6731L22.3005 9.61183L14.1336 1.33087C12.3825 -0.443623 9.5473 -0.443623 7.79614 1.33087L0.0723145 9.15765C-0.026709 9.25799 -0.026709 9.41642 0.0723145 9.51677L9.5473 19.118C10.105 19.6831 10.8659 20.0053 11.6581 20.0053H14.6131C14.7226 20.0053 14.7799 19.868 14.7017 19.7888H14.7069Z" fill="white"/>
<path d="M35.9707 2.42944H39.4313L46.6705 12.5536V2.42944H49.9017V17.5707H46.462L39.202 7.46773V17.5707H35.9707V2.42944Z" fill="#1D1D1B"/>
<path d="M52.2266 2.42944H58.5432C62.6761 2.42944 65.9908 5.83055 65.9908 10.0186C65.9908 14.2066 62.6761 17.5654 58.5432 17.5654H52.2266V2.42944ZM58.6683 14.3386C60.9771 14.3386 62.7804 12.3846 62.7804 10.0238C62.7804 7.66314 60.9771 5.66683 58.6683 5.66683H55.4579V14.3439H58.6683V14.3386Z" fill="#1D1D1B"/>
<path d="M67.4238 2.42944H74.2043C77.6024 2.42944 80.5001 5.02252 80.5001 8.40251C80.5001 11.7825 77.6233 14.3756 74.2043 14.3756H70.6603V17.5654H67.429V2.42944H67.4238ZM74.1783 11.191C75.9399 11.191 77.2845 9.89181 77.2845 8.40779C77.2845 6.92377 75.8565 5.62458 74.0949 5.62458H70.6551V11.1963H74.1783V11.191Z" fill="#1D1D1B"/>
<path d="M81.9277 2.42944H88.7082C92.1063 2.42944 95.004 5.02252 95.004 8.40251C95.004 11.7825 92.1272 14.3756 88.7082 14.3756H85.1642V17.5654H81.933V2.42944H81.9277ZM88.6822 11.191C90.4438 11.191 91.7884 9.89181 91.7884 8.40779C91.7884 6.92377 90.3604 5.62458 88.5988 5.62458H85.159V11.1963H88.6822V11.191Z" fill="#1D1D1B"/>
</g>
<defs>
<clipPath id="clip0_233_18500">
<rect width="95" height="20" fill="white"/>
</clipPath>
</defs>
</svg>
