<svg width="95" height="20" viewBox="0 0 95 20" fill="none" xmlns="http://www.w3.org/2000/svg">
<g clip-path="url(#clip0_221_17299)">
<path d="M19.1737 0H16.2134C16.1039 0 16.0466 0.137312 16.1248 0.21653L26.4389 10.6681L20.9248 16.2556C20.3411 16.8471 19.3978 16.8471 18.8141 16.2556L12.7788 10.14L14.5404 8.3549L12.5391 6.32691L8.53125 10.3882L16.7033 18.6691C18.4544 20.4436 21.2896 20.4436 23.0408 18.6691L30.7646 10.8424C30.8636 10.742 30.8636 10.5836 30.7646 10.4832L21.2844 0.887246C20.7268 0.322155 19.9659 0 19.1737 0Z" fill="white"/>
<path d="M14.7074 19.7888L4.39335 9.33193L9.9074 3.74439C10.4911 3.15289 11.4344 3.15289 12.0182 3.74439L18.0534 9.86005L16.2918 11.6451L18.2931 13.6731L22.301 9.61183L14.1341 1.33087C12.383 -0.443623 9.54778 -0.443623 7.79663 1.33087L0.0728028 9.15765C-0.0262207 9.25799 -0.0262207 9.41642 0.0728028 9.51677L9.54779 19.118C10.1054 19.6831 10.8664 20.0053 11.6585 20.0053H14.6136C14.7231 20.0053 14.7804 19.868 14.7022 19.7888H14.7074Z" fill="white"/>
<path d="M35.9717 2.42944H39.4323L46.6714 12.5536V2.42944H49.9027V17.5707H46.463L39.203 7.46773V17.5707H35.9717V2.42944Z" fill="#1D1D1B"/>
<path d="M52.2271 2.42944H58.5437C62.6766 2.42944 65.9913 5.83055 65.9913 10.0186C65.9913 14.2066 62.6766 17.5654 58.5437 17.5654H52.2271V2.42944ZM58.6688 14.3386C60.9776 14.3386 62.7809 12.3846 62.7809 10.0238C62.7809 7.66314 60.9776 5.66683 58.6688 5.66683H55.4583V14.3439H58.6688V14.3386Z" fill="#1D1D1B"/>
<path d="M67.4248 2.42944H74.2053C77.6034 2.42944 80.5011 5.02252 80.5011 8.40251C80.5011 11.7825 77.6242 14.3756 74.2053 14.3756H70.6613V17.5654H67.43V2.42944H67.4248ZM74.1793 11.191C75.9408 11.191 77.2855 9.89181 77.2855 8.40779C77.2855 6.92377 75.8574 5.62458 74.0959 5.62458H70.6561V11.1963H74.1793V11.191Z" fill="#1D1D1B"/>
<path d="M81.9292 2.42944H88.7097C92.1078 2.42944 95.0055 5.02252 95.0055 8.40251C95.0055 11.7825 92.1286 14.3756 88.7097 14.3756H85.1657V17.5654H81.9344V2.42944H81.9292ZM88.6836 11.191C90.4452 11.191 91.7899 9.89181 91.7899 8.40779C91.7899 6.92377 90.3618 5.62458 88.6003 5.62458H85.1605V11.1963H88.6836V11.191Z" fill="#1D1D1B"/>
</g>
<defs>
<clipPath id="clip0_221_17299">
<rect width="95" height="20" fill="white"/>
</clipPath>
</defs>
</svg>
