<?xml version="1.0" standalone="no"?>
<!DOCTYPE svg PUBLIC "-//W3C//DTD SVG 20010904//EN"
 "http://www.w3.org/TR/2001/REC-SVG-20010904/DTD/svg10.dtd">
<svg version="1.0" xmlns="http://www.w3.org/2000/svg"
 width="848.000000pt" height="848.000000pt" viewBox="0 0 848.000000 848.000000"
 preserveAspectRatio="xMidYMid meet">
<metadata>
Created by potrace 1.14, written by Peter Selinger 2001-2017
</metadata>
<g transform="translate(0.000000,848.000000) scale(0.100000,-0.100000)"
fill="#000000" stroke="none">
<path d="M2850 6949 c-25 -4 -63 -10 -85 -14 -22 -4 -87 -22 -145 -41 -156
-52 -306 -138 -420 -242 -132 -120 -2194 -2196 -2198 -2213 -10 -42 -88 37
2053 -2111 506 -508 635 -631 702 -675 44 -29 83 -53 86 -53 2 0 22 -8 43 -17
22 -9 41 -17 44 -18 3 -1 12 -5 20 -8 74 -31 154 -36 611 -37 489 -1 496 0
480 42 -5 14 -1375 1396 -2587 2611 l-247 247 164 166 c1297 1306 1393 1400
1460 1432 83 40 155 51 239 37 143 -23 104 12 1029 -917 465 -467 847 -852
849 -857 2 -5 -103 -115 -233 -245 -130 -131 -235 -242 -233 -247 2 -5 124
-130 272 -278 l269 -270 529 532 c291 293 538 541 549 553 l19 21 -540 544
c-1437 1446 -1757 1764 -1835 1821 -44 32 -85 62 -91 67 -40 33 -237 115 -340
142 -104 27 -138 31 -269 34 -82 1 -170 -1 -195 -6z"/>
<path d="M4427 6954 c-25 -25 16 -70 493 -548 275 -276 913 -917 1419 -1425
l919 -923 -780 -783 c-816 -819 -810 -813 -925 -844 -69 -19 -200 -13 -228 9
-5 5 -14 9 -20 10 -13 3 -44 17 -73 34 -32 18 -43 30 -931 921 l-793 797 238
239 c132 132 238 244 237 249 -4 14 -530 540 -540 540 -5 0 -255 -246 -555
-548 l-546 -547 116 -117 c65 -64 585 -586 1157 -1160 572 -574 1052 -1052
1065 -1063 27 -20 132 -92 165 -112 84 -50 247 -114 324 -128 19 -3 37 -8 41
-10 30 -19 328 -27 420 -12 232 37 441 130 605 266 16 14 439 435 938 936
1417 1420 1297 1297 1291 1331 -4 21 -59 83 -209 234 -1072 1076 -2475 2478
-2493 2493 -12 9 -27 17 -32 17 -6 0 -10 5 -10 10 0 6 -6 10 -14 10 -8 0 -16
4 -18 8 -8 19 -195 95 -268 109 -49 9 -984 16 -993 7z"/>
</g>
</svg>
